<?xml version="1.0" encoding="utf-8" ?>
<svg baseProfile="full" height="200mm" version="1.1" viewBox="0,0,200,200" width="200mm" xmlns="http://www.w3.org/2000/svg" xmlns:ev="http://www.w3.org/2001/xml-events" xmlns:xlink="http://www.w3.org/1999/xlink"><defs /><rect fill="#1a1a1a" height="200" width="200" x="0" y="0" /><text alignment-baseline="middle" fill="#e1ed5e" style="dominant-baseline: central; font-size:9.0px; font-family:Arial;" text-anchor="middle" x="100.0" y="100.0">2021</text><line stroke="#e1ed5e" stroke-width="0.3" x1="100.0" x2="100.0" y1="15.0" y2="10.0" /><path d="M 100.0 14.0 a86.0,86.0 0 0,1 42.46469731375804,11.215312516191453" fill="none" id="id1" stroke="none" /><text fill="#e1ed5e" style="font-size:6.75px; font-family:Arial;" text-anchor="middle"><textPath startOffset="22.20632615414155" xlink:href="#id1">January</textPath></text><line stroke="#e1ed5e" stroke-width="0.3" x1="143.23703022742887" x2="145.7803849466894" y1="26.81831364943548" y2="22.513508569990506" /><path d="M 143.74570117128098 25.957352633546492 a86.0,86.0 0 0,1 28.547481713284135,27.462654790039103" fill="none" id="id2" stroke="none" /><text fill="#e1ed5e" style="font-size:6.75px; font-family:Arial;" text-anchor="middle"><textPath startOffset="19.985693538727396" xlink:href="#id2">February</textPath></text><line stroke="#e1ed5e" stroke-width="0.3" x1="172.23445277983987" x2="176.4835382374775" y1="55.19839476539836" y2="52.563006222186495" /><path d="M 173.08426987136738 54.67131705675599 a86.0,86.0 0 0,1 12.851231095245387,41.99856678651699" fill="none" id="id3" stroke="none" /><text fill="#e1ed5e" style="font-size:6.75px; font-family:Arial;" text-anchor="middle"><textPath startOffset="22.20632615414155" xlink:href="#id3">March</textPath></text><path d="M 120.73433829027371 96.67025291283417 l 13.694954993889318 -2.199285834993875 a34.87042358649002,34.87042358649002 0 0,0 0.09007214156391977,0.5934628733845527 l -13.730783028892537 1.96322384921724" fill="#ff1802" stroke="none" /><path d="M 120.94382443527127 98.46500227214037 l 31.484911068377006 -2.3075664667256537 a52.569359955215525,52.569359955215525 0 0,0 0.058375543115798664,0.9030438143744507 l -31.519967202497217 1.7652635880981675" fill="#ccff1d" stroke="none" /><path d="M 120.96714384426684 98.82574320788733 l 42.137738235259185 -2.359907753508759 a63.20376935995522,63.20376935995522 0 0,0 0.05148516379957742,1.0867704350210183 l -42.17211700729226 1.634226211864741" fill="#40ff2d" stroke="none" /><path d="M 120.98425023603335 99.18683210126433 l 40.56902836265108 -1.5721043723905141 a61.599477514461654,61.599477514461654 0 0,0 0.03193875869286096,1.0598919109046434 l -40.59007881579959 0.8735423140608715" fill="#53ff2b" stroke="none" /><line stroke="#e1ed5e" stroke-width="0.3" x1="184.98032266829074" x2="189.97916517819016" y1="98.17113171792111" y2="98.06355123074" /><path d="M 185.9800911702706 98.14961562048488 a86.0,86.0 0 0,1 -9.607161424134198,41.387399972396054" fill="none" id="id4" stroke="none" /><text fill="#e1ed5e" style="font-size:6.75px; font-family:Arial;" text-anchor="middle"><textPath startOffset="21.466115282336823" xlink:href="#id4">April</textPath></text><path d="M 120.99513854157772 99.54816195383933 l 39.41867623622659 -0.8483324659918213 a60.42780369471917,60.42780369471917 0 0,0 0.013429339511206489,1.0401171447943327 l -39.42743858285551 0.169679063137026" fill="#62ff29" stroke="none" /><path d="M 120.99980553446 99.90962569577887 l 39.36630834095635 -0.16941598436377545 a60.3666728867326,60.3666728867326 0 0,0 -0.004472028411122613,1.039141908615831 l -39.36339201525573 -0.5082354024557401" fill="#63ff29" stroke="none" /><path d="M 120.9764740272857 100.99374915477107 l 39.344490825278044 1.8639240537594384 a60.388617279343165,60.388617279343165 0 0,0 -0.0581273485748537,1.0379028565481108 l -39.30657712581566 -2.5408986266429725" fill="#62ff29" stroke="none" /><path d="M 120.95626037817324 101.35467743843564 l 39.1188741032084 2.528764923145135 a60.20052248553835,60.20052248553835 0 0,0 -0.07574785591775443,1.033519312046038 l -39.0695496886263 -3.2017573716879433" fill="#65ff29" stroke="none" /><path d="M 120.92983693683757 101.71520430193887 l 39.06486302986082 3.2013732990694828 a60.19582011569322,60.19582011569322 0 0,0 -0.09351966350985909,1.0319816939634239 l -39.00396877007388 -3.873336381581477" fill="#65ff29" stroke="none" /><path d="M 120.64145759157962 103.86396538481128 l 15.42312455461898 2.8871226336744407 a36.69102444485911,36.69102444485911 0 0,0 -0.12155223951525689,0.619792250553726 l -15.37114238212806 -3.152178611296111" fill="#ff3805" stroke="none" /><path d="M 120.5718875245553 104.21870165774334 l 30.735375005430942 6.302940230059302 a52.374995334950555,52.374995334950555 0 0,0 -0.1887144937534211,0.881611288526078 l -30.622326472953077 -6.831065338001549" fill="#ceff1d" stroke="none" /><path d="M 119.9155931802556 106.66101706037122 l 15.019753946131935 5.023542928008273 a36.837581638365364,36.837581638365364 0 0,0 -0.20630654126424045,0.5996233788652217 l -14.931056573924463 -5.281339009962795" fill="#ff3b05" stroke="none" /><path d="M 119.79798401119884 107.00284435728193 l 14.846086685464387 5.251283883965878 a36.74745288300056,36.74745288300056 0 0,0 -0.21606756670971933,0.5945251462577542 l -14.753494857749441 -5.506056827229764" fill="#ff3905" stroke="none" /><path d="M 118.97047184881838 109.00673069616215 l 21.259389015723762 10.093454351347534 a44.53379361821236,44.53379361821236 0 0,0 -0.3347387758679638,0.6896610246383712 l -21.082496983241086 -10.45790433195118" fill="#ffba11" stroke="none" /><line stroke="#e1ed5e" stroke-width="0.3" x1="174.80103733775053" x2="179.2010983576182" y1="140.37084112569926" y2="142.7455964860345" /><path d="M 175.68104954172406 140.8457921977663 a86.0,86.0 0 0,1 -30.038265399797805,32.042727171017184" fill="none" id="id5" stroke="none" /><text fill="#e1ed5e" style="font-size:6.75px; font-family:Arial;" text-anchor="middle"><textPath startOffset="22.206326154141568" xlink:href="#id5">May</textPath></text><path d="M 117.14729908036423 112.12312394758627 l 19.3237485736398 13.66187164475891 a44.66545997387572,44.66545997387572 0 0,0 -0.44924989187243963,0.623968807304892 l -19.085718889391757 -13.992474057514935" fill="#ffbc11" stroke="none" /><path d="M 116.71984013943494 112.70617746262583 l 13.329696773973088 10.12985120196353 a37.74200410524351,37.74200410524351 0 0,0 -0.3975368577432161,0.5138699771408132 l -13.153353099011804 -10.357799173217597" fill="#ff4a06" stroke="none" /><path d="M 116.498646956653 112.99209946851258 l 18.497941850038046 14.566473305954643 a44.54476581451763,44.54476581451763 0 0,0 -0.4795606505892243,0.5983256474309755 l -18.244463287393966 -14.88272678696387" fill="#ffba11" stroke="none" /><path d="M 116.27256486870786 113.27417163493432 l 18.285152290797715 14.915918408517912 a44.597275611121475,44.597275611121475 0 0,0 -0.49036615868847944,0.5906776273632396 l -18.02569013221569 -15.228457292994923" fill="#ffbb11" stroke="none" /><path d="M 115.07121518719521 114.62390073753431 l 8.97860824904635 8.712122689802584 a33.51065497294271,33.51065497294271 0 0,0 -0.405254523376578,0.4105206926058869 l -8.827313100614235 -8.865383876389135" fill="#ff0000" stroke="none" /><path d="M 114.29624159901734 115.38237550388516 l 21.517190798535932 23.151924676103175 a52.60697891397649,52.60697891397649 0 0,0 -0.6686107796822626,0.6107600946311702 l -21.115480469386807 -23.51887753732093" fill="#cbff1d" stroke="none" /><path d="M 113.48314897796784 116.09983520530334 l 20.210382368020163 24.13262851971649 a52.47766374323568,52.47766374323568 0 0,0 -0.6975277873773476,0.5740178815615672 l -19.791984452098124 -24.476941520135234" fill="#cdff1d" stroke="none" /><path d="M 112.92097659922987 116.55440617244103 l 9.615868421916142 12.31988854206556 a36.62832618025751,36.62832618025751 0 0,0 -0.5003625954516916,0.38365670163672205 l -9.402377097970957 -12.483584585529652" fill="#ff3705" stroke="none" /><path d="M 112.63410532772338 116.77436683061366 l 18.989586041005083 25.212571365409023 a52.56387385706289,52.56387385706289 0 0,0 -0.7274215121850088,0.5381290445222031 l -18.55277955840151 -25.535710358670993" fill="#ccff1d" stroke="none" /><path d="M 112.04921762599082 117.19931262002967 l 24.182076023708998 34.51801587813831 a63.14577346519874,63.14577346519874 0 0,0 -0.8955968519891649,0.6159996812862475 l -23.58432228709695 -34.92915634878965" fill="#40ff2d" stroke="none" /><line stroke="#e1ed5e" stroke-width="0.3" x1="143.8653032363475" x2="146.44561519142675" y1="172.8068346515853" y2="177.08958963109032" /><path d="M 144.38136562736335 173.6633856474863 a86.0,86.0 0 0,1 -40.68145358897372,12.25698825130547" fill="none" id="id6" stroke="none" /><text fill="#e1ed5e" style="font-size:6.75px; font-family:Arial;" text-anchor="middle"><textPath startOffset="21.466115282336833" xlink:href="#id6">June</textPath></text><path d="M 110.5260780823613 118.17145234162733 l 16.045050688410697 27.6990035245914 a53.01059899234932,53.01059899234932 0 0,0 -0.7935212933090882,0.4505820999745149 l -15.56588062818041 -27.971088790360543" fill="#c5ff1e" stroke="none" /><path d="M 107.93186726928326 119.44442032107085 l 8.943961099985987 21.925497875754232 a44.67956708341109,44.67956708341109 0 0,0 -0.7146154721376842,0.28436024434612495 l -8.565224551806436 -22.076204964506424" fill="#ffbc11" stroke="none" /><path d="M 107.2578585660854 119.70592522655815 l 10.836542177771177 29.422465032241526 a52.354618398955026,52.354618398955026 0 0,0 -0.8483453596123327,0.3041864632748118 l -10.32847725752911 -29.604639036556296" fill="#cfff1d" stroke="none" /><path d="M 105.53697534728816 120.25689768951611 l 6.185418289620318 22.629211365563943 a44.45933942899795,44.45933942899795 0 0,0 -0.7399506684153527,0.19542769683546515 l -5.794977178393468 -22.732330411702993" fill="#ffb911" stroke="none" /><path d="M 104.83641907484287 120.43548508189849 l 7.275656521285355 30.742077557986438 a52.59130434782609,52.59130434782609 0 0,0 -0.8827321476074411,0.2009069628663208 l -6.745404224285052 -30.862761254430442" fill="#cbff1d" stroke="none" /><path d="M 104.48393922423573 120.51570834832081 l 8.38636365824122 38.37076782519491 a60.27654413136779,60.27654413136779 0 0,0 -1.0155407613908018,0.21281644046731546 l -7.724631435421041 -38.50944024638876" fill="#64ff29" stroke="none" /><path d="M 104.13013068566511 120.58985236759428 l 12.390392056995317 61.76955710278282 a84.0,84.0 0 0,0 -1.4201295417131825,0.2721712066061275 l -11.32529490071043 -61.973685507737414" fill="#4dd2ff" stroke="none" /><path d="M 103.7750983002368 120.6578951692458 l 7.094282508308428 38.82096112529215 a60.46385519686508,60.46385519686508 0 0,0 -1.025441153196597,0.17828608866142542 l -6.424992383639781 -38.93732579247458" fill="#61ff29" stroke="none" /><path d="M 103.41894727170886 120.7198165907248 l 3.863238161803663 23.412348830654025 a44.728941966784845,44.728941966784845 0 0,0 -0.7607416156795935,0.11881219492763498 l -3.4596606825155525 -23.475379332928767" fill="#ffbd11" stroke="none" /><line stroke="#e1ed5e" stroke-width="0.3" x1="102.19456741930631" x2="102.32365962044197" y1="184.97166512339345" y2="189.96999836594603" /><path d="M 102.22038585953345 185.97133177190398 a86.0,86.0 0 0,1 -42.740103519485714,-10.115201625700543" fill="none" id="id7" stroke="none" /><text fill="#e1ed5e" style="font-size:6.75px; font-family:Arial;" text-anchor="middle"><textPath startOffset="22.20632615414155" xlink:href="#id7">July</textPath></text><line stroke="#e1ed5e" stroke-width="0.3" x1="58.666819895761336" x2="56.23545636021788" y1="174.27360380694188" y2="178.64263932499728" /><path d="M 58.180547188652646 175.14741091055294 a86.0,86.0 0 0,1 -31.652253787137756,-30.449443065178592" fill="none" id="id8" stroke="none" /><text fill="#e1ed5e" style="font-size:6.75px; font-family:Arial;" text-anchor="middle"><textPath startOffset="22.20632615414155" xlink:href="#id8">August</textPath></text><line stroke="#e1ed5e" stroke-width="0.3" x1="26.63291911575756" x2="22.317208475507996" y1="142.92168965132927" y2="145.44649492493687" /><path d="M 25.769776987707644 143.4266507060508 a86.0,86.0 0 0,1 -11.730757126820373,-40.83630448921669" fill="none" id="id9" stroke="none" /><text fill="#e1ed5e" style="font-size:6.75px; font-family:Arial;" text-anchor="middle"><textPath startOffset="21.46611528233685" xlink:href="#id9">September</textPath></text><line stroke="#e1ed5e" stroke-width="0.3" x1="15.007084014347285" x2="10.007500721073583" y1="101.09737516637583" y2="101.16192664675087" /><path d="M 14.007167355692545 101.11028546245083 a86.0,86.0 0 0,1 10.666146001902534,-42.60595125391555" fill="none" id="id10" stroke="none" /><text fill="#e1ed5e" style="font-size:6.75px; font-family:Arial;" text-anchor="middle"><textPath startOffset="22.20632615414155" xlink:href="#id10">October</textPath></text><line stroke="#e1ed5e" stroke-width="0.3" x1="26.266209847984243" x2="21.928928074336255" y1="57.711370442889674" y2="55.22380399835377" /><path d="M 25.398753493254645 57.213857153982495 a86.0,86.0 0 0,1 29.58750427330803,-30.492523968695096" fill="none" id="id11" stroke="none" /><text fill="#e1ed5e" style="font-size:6.75px; font-family:Arial;" text-anchor="middle"><textPath startOffset="21.46611528233685" xlink:href="#id11">November</textPath></text><line stroke="#e1ed5e" stroke-width="0.3" x1="56.762969772571076" x2="54.21961505331055" y1="26.818313649435495" y2="22.513508569990535" /><path d="M 56.25429882871897 25.957352633546506 a86.0,86.0 0 0,1 42.265352541879196,-11.944610805530505" fill="none" id="id12" stroke="none" /><text fill="#e1ed5e" style="font-size:6.75px; font-family:Arial;" text-anchor="middle"><textPath startOffset="22.20632615414155" xlink:href="#id12">December</textPath></text></svg>